<?xml version="1.0" standalone="no"?>
<!DOCTYPE svg PUBLIC "-//W3C//DTD SVG 20010904//EN"
 "http://www.w3.org/TR/2001/REC-SVG-20010904/DTD/svg10.dtd">
<svg version="1.0" xmlns="http://www.w3.org/2000/svg"
 width="400.000000pt" height="400.000000pt" viewBox="0 0 400.000000 400.000000"
 preserveAspectRatio="xMidYMid meet">
<metadata>
Created by potrace 1.16, written by Peter Selinger 2001-2019
</metadata>
<g transform="translate(0.000000,400.000000) scale(0.100000,-0.100000)"
fill="#000000" stroke="none">
<path d="M1770 3990 c-125 -16 -200 -29 -217 -38 -10 -6 -38 -13 -63 -16 -50
-8 -100 -25 -100 -35 0 -3 -18 -7 -41 -9 -45 -3 -89 -27 -89 -48 0 -10 -8 -12
-29 -8 -39 8 -112 -31 -104 -55 5 -12 3 -13 -6 -5 -19 17 -78 -4 -107 -39 -14
-16 -27 -27 -31 -24 -9 9 -79 -30 -100 -55 -10 -13 -25 -24 -33 -26 -25 -6
-78 -51 -85 -71 -3 -10 -18 -22 -33 -26 -31 -7 -82 -52 -82 -72 0 -7 -6 -13
-13 -13 -21 0 -87 -60 -87 -79 0 -10 -17 -27 -39 -39 -21 -12 -46 -37 -54 -54
-9 -18 -32 -49 -51 -67 -20 -19 -36 -40 -36 -47 0 -6 -18 -33 -39 -59 -22 -26
-42 -60 -46 -74 -4 -14 -15 -35 -25 -46 -23 -25 -53 -93 -45 -105 3 -4 1 -10
-4 -12 -16 -6 -61 -81 -61 -102 0 -12 -9 -34 -20 -51 -12 -18 -20 -47 -20 -72
0 -24 -4 -43 -9 -43 -5 0 -17 -21 -27 -46 -14 -37 -15 -50 -6 -65 15 -24 15
-29 -1 -29 -14 0 -37 -61 -37 -98 0 -11 6 -23 13 -25 8 -4 9 -8 1 -14 -22 -16
-35 -54 -35 -101 0 -26 -1 -90 -3 -142 -6 -144 5 -309 21 -325 7 -8 9 -16 4
-19 -14 -9 -7 -92 9 -111 8 -10 13 -32 11 -51 -1 -18 7 -54 18 -80 12 -25 21
-60 21 -76 0 -33 25 -88 41 -88 6 0 7 -5 4 -10 -11 -17 25 -109 46 -121 14 -7
18 -16 14 -29 -6 -20 6 -52 35 -85 9 -11 24 -41 34 -66 9 -26 26 -55 37 -65
11 -10 28 -37 38 -60 11 -23 30 -50 44 -58 13 -9 32 -33 41 -54 9 -21 30 -46
46 -57 16 -11 37 -35 47 -55 11 -19 32 -44 49 -55 17 -11 42 -37 57 -58 18
-24 38 -40 57 -44 17 -3 30 -11 30 -18 0 -14 65 -75 80 -75 5 0 30 -18 55 -40
25 -22 52 -41 58 -42 7 0 17 -2 23 -2 6 -1 23 -16 38 -33 17 -21 40 -35 64
-39 20 -4 45 -16 57 -26 30 -29 72 -49 89 -42 9 3 27 -5 43 -20 26 -25 40 -31
88 -40 11 -1 40 -13 65 -24 25 -12 58 -22 73 -22 15 0 41 -7 57 -15 16 -9 52
-17 79 -18 27 -2 57 -9 65 -17 11 -8 31 -11 61 -7 31 5 58 2 86 -10 32 -12 48
-14 74 -6 20 6 37 7 42 2 11 -11 59 -12 168 -6 44 3 112 7 151 9 40 2 78 9 86
15 7 6 34 11 59 10 26 -1 57 3 70 10 13 6 51 16 83 22 33 6 63 16 67 23 4 6
27 13 50 15 43 4 99 30 99 45 0 4 15 8 33 8 34 0 97 32 97 50 0 5 3 9 8 8 21
-6 82 15 98 33 11 12 43 32 72 45 29 13 55 30 58 39 4 9 23 23 43 31 42 17 81
52 81 71 0 7 7 13 16 13 28 0 82 40 96 70 7 17 19 30 26 30 18 0 82 64 82 82
1 7 19 25 41 41 26 18 42 37 46 57 3 17 11 30 18 30 15 0 75 65 75 81 0 6 18
34 40 61 22 28 40 57 40 64 0 8 16 34 35 60 19 25 35 55 35 66 0 11 14 39 31
63 24 33 30 51 27 74 -2 17 -2 29 0 26 10 -10 51 71 52 102 0 17 10 48 21 68
16 27 20 46 16 75 -3 22 -2 40 2 40 15 0 29 47 26 91 -1 28 3 50 13 61 18 22
29 108 13 108 -6 0 -11 7 -11 16 0 8 4 13 9 10 16 -10 21 102 13 331 -1 49 -7
76 -18 87 -8 9 -11 16 -5 16 22 0 12 78 -13 106 -20 24 -22 33 -14 61 10 38 4
65 -19 88 -9 9 -16 36 -17 66 -1 39 -7 54 -23 67 -15 12 -21 28 -21 54 0 39
-29 98 -48 98 -6 0 -12 6 -11 13 1 48 -6 72 -33 99 -16 16 -30 38 -30 49 0 26
-16 56 -51 97 -16 18 -29 39 -29 47 0 17 -50 65 -67 65 -7 0 -13 9 -13 20 0
48 -54 111 -81 94 -6 -3 -9 0 -8 7 5 33 -22 71 -61 86 -22 9 -40 22 -40 29 0
19 -65 84 -84 84 -9 0 -16 4 -16 10 0 15 -69 80 -86 80 -9 0 -33 18 -55 40
-29 29 -48 40 -69 40 -18 0 -30 5 -30 13 0 15 -78 67 -101 67 -10 0 -31 14
-47 30 -22 21 -40 30 -64 30 -21 0 -44 9 -62 25 -33 28 -69 41 -86 30 -6 -4
-28 6 -48 22 -28 21 -47 28 -79 27 -24 0 -43 3 -43 8 0 4 -6 8 -14 8 -8 0 -16
4 -18 10 -3 8 -72 23 -181 37 -22 3 -44 0 -50 -6 -7 -7 -14 -5 -23 7 -11 15
-36 17 -206 18 -106 1 -222 -2 -258 -6z m886 -396 c70 -33 100 -62 104 -100 5
-42 -1 -64 -26 -93 -33 -39 -79 -48 -140 -27 -26 9 -51 16 -56 16 -4 0 -17
-22 -29 -50 -12 -27 -24 -50 -28 -50 -3 1 -20 9 -38 18 l-32 17 67 158 c75
178 58 168 178 111z m-1214 -138 c44 -82 78 -150 76 -151 -10 -8 -70 -36 -73
-33 -1 2 -23 44 -48 93 -25 50 -46 83 -46 75 -1 -8 6 -53 14 -100 19 -109 20
-105 -12 -119 -25 -12 -30 -9 -99 60 -41 40 -76 71 -79 68 -2 -3 9 -27 25 -52
16 -26 39 -65 49 -86 l20 -38 -36 -17 c-20 -9 -39 -13 -43 -9 -12 13 -150 279
-150 289 0 5 20 20 45 34 l45 25 85 -85 c96 -95 94 -97 66 53 l-18 98 41 24
c23 14 45 23 50 22 5 -2 45 -70 88 -151z m500 124 c2 -6 14 -12 27 -13 21 -1
22 -4 16 -42 -4 -22 -7 -48 -7 -57 0 -9 -6 -19 -14 -22 -8 -3 -14 -18 -13 -38
l1 -33 10 28 c5 15 13 27 18 27 5 0 15 3 23 6 10 3 22 -4 33 -21 16 -25 16
-27 -6 -50 -18 -19 -20 -26 -9 -29 8 -2 21 -7 29 -9 8 -3 -10 -5 -40 -6 -45 0
-51 2 -31 10 23 9 24 10 5 24 -25 19 -40 19 -24 0 11 -13 8 -15 -21 -14 -49 3
-66 15 -71 48 -2 17 -1 28 4 25 4 -3 9 0 9 5 1 6 2 16 3 21 0 6 7 14 15 19 8
6 12 24 10 52 -3 45 7 79 21 79 5 0 10 -5 12 -10z m1069 -180 c52 -27 79 -72
79 -131 0 -39 -7 -56 -44 -106 -66 -90 -122 -110 -203 -73 -53 24 -83 70 -83
128 0 50 9 70 58 131 58 71 120 88 193 51z m-1995 -197 l155 -86 -29 -30 -30
-29 -31 18 -31 18 -37 -36 c-35 -35 -36 -38 -23 -68 12 -29 11 -33 -13 -58
-17 -16 -30 -23 -36 -17 -5 6 -41 80 -80 165 l-72 155 33 28 c18 15 34 27 36
27 2 0 73 -39 158 -87z m654 -3 c-6 -34 -5 -37 17 -34 27 3 27 6 7 -52 -8 -25
-13 -52 -11 -59 6 -14 -28 -75 -41 -75 -22 0 -20 16 5 42 15 15 25 28 22 28
-3 0 -23 -18 -44 -41 -22 -22 -35 -40 -30 -39 34 7 38 0 32 -62 -3 -40 -11
-66 -21 -74 -19 -13 -21 -35 -4 -32 15 4 36 -79 30 -123 -3 -23 0 -39 8 -44 9
-5 11 -4 6 3 -4 7 -3 12 2 12 11 0 56 -49 70 -76 6 -12 49 -43 94 -69 l83 -48
105 0 106 1 87 52 c48 29 87 56 87 61 0 13 61 79 72 79 6 0 4 -8 -3 -17 -13
-17 -12 -17 4 -3 14 10 18 23 14 50 -6 44 14 126 31 122 17 -3 15 8 -5 30 -9
11 -18 42 -21 76 -4 43 -12 65 -34 93 -18 22 -26 42 -22 52 3 10 -1 35 -10 57
-21 53 -20 60 5 60 19 0 20 4 15 34 -6 29 -4 34 11 31 10 -2 20 -4 23 -4 3 -1
14 -14 23 -31 10 -16 21 -29 25 -29 30 5 52 -30 53 -84 0 -24 2 -28 8 -13 7
17 8 17 24 2 10 -10 17 -33 17 -52 0 -19 4 -33 9 -30 5 4 11 2 13 -4 2 -6 46
4 108 25 108 36 126 37 154 6 18 -20 15 -21 -166 -37 l-78 -7 0 -33 c0 -18 -5
-45 -10 -60 -7 -17 -7 -31 -1 -37 5 -5 5 -21 0 -41 -5 -17 -7 -43 -3 -59 8
-39 -34 -106 -85 -135 -23 -13 -41 -26 -41 -29 0 -3 20 7 44 21 37 22 45 23
50 10 3 -8 20 -21 38 -28 18 -7 187 -75 374 -151 l342 -138 10 -56 c6 -31 14
-80 17 -109 7 -52 7 -54 -14 -43 -11 6 -159 102 -328 214 -169 111 -338 222
-375 246 -38 24 -68 48 -68 53 0 6 -12 -2 -28 -18 -15 -16 -26 -37 -24 -46 6
-27 -54 -77 -99 -84 -21 -4 -37 -10 -34 -13 5 -10 -6 -24 -35 -44 -14 -10 -25
-25 -25 -35 0 -15 -10 -17 -95 -14 -117 3 -147 9 -131 25 6 6 11 16 11 22 0 5
-7 1 -15 -9 -17 -23 -18 -23 -153 -37 -108 -12 -138 -8 -129 16 4 9 -7 22 -29
36 -19 12 -33 27 -30 34 3 8 -8 15 -31 18 -48 8 -105 53 -101 80 2 12 -8 33
-24 50 -16 16 -28 37 -28 46 0 9 -10 35 -22 58 -18 33 -20 47 -12 60 7 12 7
27 -2 52 -8 23 -9 40 -3 47 6 7 6 22 -1 38 -13 35 -13 109 0 101 6 -3 10 -1
10 5 0 6 5 8 10 5 6 -4 10 8 10 27 0 42 25 80 38 60 6 -9 11 0 15 29 5 42 31
74 48 63 5 -3 9 -1 9 4 0 15 45 59 61 59 13 0 14 -8 9 -37z m1599 -32 c14 -18
20 -33 14 -36 -6 -4 -53 -45 -106 -91 l-97 -84 30 -37 c16 -20 36 -43 45 -50
8 -7 15 -18 15 -25 0 -11 -47 -42 -53 -34 -2 2 -34 39 -71 82 -37 44 -66 82
-64 86 4 12 249 221 256 220 4 0 18 -14 31 -31z m-1116 -74 c27 -9 66 -33 88
-54 33 -31 39 -43 39 -79 0 -56 -24 -100 -65 -117 -44 -18 -82 -5 -91 32 -8
30 12 50 33 32 10 -8 10 -14 2 -24 -9 -11 -8 -14 2 -15 49 -4 89 34 89 86 0
40 -28 75 -85 104 l-40 21 -13 -42 c-7 -24 -17 -99 -21 -168 -10 -140 -28
-197 -73 -235 -66 -56 -151 -55 -218 1 -54 46 -35 60 26 19 43 -29 100 -33
144 -10 55 28 75 92 99 310 6 50 13 100 17 113 7 24 12 22 -81 26 l-40 1 2
-67 c2 -77 29 -221 49 -260 13 -26 10 -58 -6 -58 -5 0 -19 29 -31 65 -17 47
-28 64 -39 61 -8 -3 -35 -8 -59 -11 -39 -6 -42 -5 -37 12 3 10 13 45 21 78 9
32 29 86 46 118 l30 60 -43 -7 c-50 -8 -123 -48 -138 -76 -14 -25 -13 -27 11
-33 26 -7 20 -31 -9 -35 -29 -4 -47 33 -33 70 13 34 77 77 139 95 61 17 221
10 285 -13z m-1448 -64 l25 -10 -22 -35 c-17 -25 -28 -33 -41 -29 -24 8 -57
-23 -57 -53 0 -40 27 -38 92 6 75 50 121 54 163 15 24 -23 27 -31 23 -74 -10
-101 -120 -183 -188 -140 -13 8 -13 13 2 37 13 21 25 28 49 28 36 1 72 37 67
69 -5 34 -40 30 -104 -14 -74 -50 -113 -53 -155 -11 -34 34 -36 61 -9 116 25
52 39 68 75 88 36 19 45 20 80 7z m578 -96 c83 -14 153 -27 155 -29 6 -6 -120
-15 -251 -18 -70 -1 -127 0 -127 3 0 5 63 70 68 70 2 0 72 -12 155 -26z m1622
-15 c22 -23 32 -39 23 -36 -10 3 -79 7 -155 8 -76 2 -156 6 -178 9 -39 6 -37
6 35 19 41 8 107 19 145 26 39 7 75 14 80 14 6 1 29 -18 50 -40z m579 -50 c-2
-4 -67 -46 -145 -94 -135 -84 -143 -87 -156 -69 -38 51 -42 47 114 142 l147
90 22 -32 c12 -17 20 -34 18 -37z m-1734 -19 c0 -5 0 -13 0 -17 0 -5 -10 -8
-23 -8 -18 0 -23 -6 -25 -36 -2 -24 3 -42 13 -53 18 -17 50 -22 40 -6 -19 31
39 80 95 80 33 0 80 -53 80 -89 0 -19 -5 -31 -13 -31 -20 0 -28 12 -17 25 13
15 -34 65 -61 65 -19 0 -82 -49 -63 -50 6 0 19 9 29 20 18 20 45 27 45 13 0
-26 -41 -71 -70 -77 -89 -17 -152 92 -90 154 21 21 60 27 60 10z m-366 -20
c33 0 57 -2 54 -5 -5 -5 -501 -95 -505 -91 -1 1 17 26 39 55 l41 54 156 -6
c86 -4 183 -7 215 -7z m1640 -40 c21 -28 37 -52 35 -54 -4 -3 -403 66 -469 81
-38 9 78 17 290 21 l106 2 38 -50z m-1574 -44 c0 -2 -53 -20 -117 -41 -65 -20
-192 -60 -283 -89 -186 -60 -220 -69 -220 -60 0 16 71 132 82 136 7 3 31 6 53
7 22 1 128 12 235 25 201 25 250 29 250 22z m1330 -21 c118 -13 237 -26 265
-28 l50 -5 37 -68 c21 -38 38 -72 38 -75 0 -6 -609 187 -618 196 -8 7 -5 7
228 -20z m771 -22 c36 -21 69 -87 69 -136 0 -26 -8 -46 -31 -72 -39 -44 -54
-44 -69 1 -11 32 -10 37 9 50 24 17 27 52 8 79 -18 23 -73 17 -141 -16 -55
-27 -71 -54 -52 -90 9 -18 20 -24 44 -24 27 0 34 -5 43 -32 14 -43 6 -53 -43
-53 -77 0 -140 98 -117 182 24 91 198 159 280 111z m-3025 -9 c-3 -9 -9 -27
-12 -40 -4 -17 -13 -24 -30 -24 -27 0 -47 -30 -42 -63 6 -40 34 -30 97 32 51
52 65 61 96 61 52 0 95 -44 95 -97 0 -96 -101 -200 -159 -164 -22 14 5 84 29
76 37 -12 76 63 48 91 -20 20 -41 10 -83 -42 -64 -78 -119 -91 -171 -39 -31
31 -32 92 -3 152 24 49 58 72 108 73 26 0 32 -3 27 -16z m944 -21 c-1 -5 -47
-29 -103 -55 -139 -65 -533 -254 -579 -278 -29 -14 -38 -16 -38 -5 0 20 48
157 59 168 5 5 150 45 322 89 173 43 315 81 318 84 7 7 21 5 21 -3z m1459 -98
c140 -35 258 -70 262 -77 9 -14 59 -158 59 -170 0 -3 -73 29 -162 72 -366 175
-465 222 -510 242 -71 31 -58 39 25 17 39 -11 186 -49 326 -84z m-1514 -33
c-50 -32 -211 -138 -358 -235 -147 -98 -286 -188 -307 -202 l-40 -25 0 35 c0
69 23 176 39 184 9 5 124 53 256 106 132 54 292 119 355 146 63 26 122 48 130
48 8 1 -26 -25 -75 -57z m90 -39 c-16 -14 -57 -49 -90 -78 -33 -29 -172 -150
-310 -270 -261 -227 -370 -325 -345 -308 8 5 146 111 305 234 160 123 302 233
316 244 15 11 63 48 107 83 44 34 84 62 87 62 4 0 -13 -22 -37 -49 -419 -472
-614 -694 -637 -727 -7 -10 156 152 364 361 223 225 368 364 354 340 -61 -104
-162 -235 -213 -274 -116 -90 -216 -215 -281 -355 -55 -116 -75 -186 -87 -311
-10 -94 -1 -264 17 -321 10 -29 -80 72 -130 146 -132 198 -205 419 -221 673
l-7 104 79 45 c44 24 156 89 249 143 429 249 491 284 500 284 6 0 -3 -11 -20
-26z m1013 4 c20 -13 57 -35 82 -49 47 -26 242 -139 415 -240 55 -32 140 -79
188 -106 l89 -47 -5 -120 c-11 -286 -105 -531 -290 -762 -28 -35 -53 -63 -57
-63 -4 0 0 30 8 68 10 48 12 108 9 212 -4 127 -9 156 -35 237 -39 114 -86 210
-147 292 -51 70 -150 169 -204 204 -19 13 -69 76 -122 155 -49 73 -89 134 -89
135 0 2 172 -169 382 -378 210 -209 360 -355 333 -325 -26 30 -109 125 -184
210 -74 85 -158 180 -186 210 -27 31 -99 112 -160 180 -60 69 -114 128 -120
132 -5 4 -7 9 -5 12 6 5 124 -83 430 -321 189 -148 373 -286 366 -275 -3 6
-55 53 -114 103 -59 51 -109 95 -112 98 -3 4 -70 62 -150 131 -80 69 -158 137
-175 151 -16 15 -70 61 -118 103 -88 76 -99 96 -29 53z m1184 -246 c10 -63 16
-116 14 -118 -2 -2 -16 -5 -32 -6 -28 -2 -29 -1 -39 68 l-10 70 -35 0 c-19 0
-34 -4 -33 -10 0 -5 4 -35 8 -66 7 -55 6 -56 -19 -61 -30 -6 -46 14 -46 56 0
13 -4 35 -9 48 -8 21 -14 24 -46 20 l-37 -4 6 -42 c21 -131 22 -126 -13 -126
-17 0 -31 1 -32 3 0 1 -8 53 -18 115 -13 81 -15 115 -7 118 21 8 291 52 310
50 17 -1 22 -16 38 -115z m-3052 62 c0 -45 -13 -63 -46 -69 -27 -5 -34 -11
-34 -29 0 -12 -3 -36 -6 -52 -5 -26 -2 -31 25 -43 26 -10 31 -18 31 -47 0 -18
-6 -36 -13 -39 -7 -2 -83 29 -168 70 l-155 74 4 42 c2 23 10 44 16 46 16 6
305 61 329 63 10 1 17 -6 17 -16z m1071 -155 c1 -7 1 -16 0 -21 -1 -4 10 -30
24 -57 14 -27 25 -53 24 -56 0 -3 3 -9 7 -12 4 -4 4 -1 -1 7 -5 9 -4 12 3 7 7
-4 12 -14 12 -22 0 -8 6 -13 13 -11 6 1 11 -5 9 -13 -2 -8 0 -12 4 -8 4 4 19
-1 34 -12 16 -11 33 -20 39 -20 6 0 11 -4 11 -10 0 -5 7 -6 17 -3 9 4 14 2 11
-3 -4 -5 25 -9 67 -9 42 0 71 4 67 9 -3 5 2 7 11 3 9 -3 17 -2 19 4 2 5 14 11
28 14 13 3 28 11 32 20 5 8 16 15 24 15 8 0 13 3 11 8 -3 4 5 16 16 27 11 11
16 13 12 5 -5 -9 -4 -12 1 -7 5 5 9 16 9 25 0 9 5 16 12 15 7 -2 10 4 7 12 -4
9 1 18 11 21 13 5 14 9 3 15 -10 7 -11 9 0 9 7 0 10 5 7 10 -9 15 4 50 19 50
6 0 48 -17 92 -39 95 -46 254 -160 188 -134 -11 4 -15 1 -12 -12 2 -11 -8 -24
-26 -34 -16 -9 -33 -27 -37 -39 -6 -17 -5 -21 3 -16 8 5 9 2 3 -12 -4 -10 -10
-29 -12 -41 -3 -13 -8 -23 -12 -23 -8 0 -8 -93 0 -100 4 -3 9 -16 13 -30 6
-19 5 -21 -3 -10 -16 23 -13 3 4 -30 18 -35 31 -41 15 -7 -11 21 -10 21 4 3 9
-11 16 -24 16 -28 0 -11 72 -78 83 -78 5 0 5 -4 2 -10 -4 -6 1 -7 11 -3 10 3
15 2 12 -3 -4 -5 4 -10 15 -11 12 -1 55 -6 95 -10 39 -5 72 -6 72 -2 0 4 9 9
20 12 11 3 18 1 15 -3 -3 -5 1 -10 7 -12 18 -6 17 -281 -1 -323 -9 -23 -14
-26 -21 -15 -5 8 -12 11 -16 7 -4 -4 -13 -2 -21 5 -8 6 -44 12 -81 12 -51 1
-78 -4 -113 -21 -26 -12 -50 -19 -54 -15 -3 4 -5 0 -3 -8 2 -9 -3 -14 -12 -12
-8 2 -12 0 -7 -4 10 -10 -22 -44 -42 -44 -14 0 -14 -2 -1 -10 13 -8 12 -10 -3
-10 -10 0 -16 -4 -13 -9 8 -13 -4 -42 -15 -35 -5 3 -6 -2 -3 -11 4 -9 -1 -22
-12 -31 -11 -9 -13 -13 -6 -9 8 4 12 -1 12 -14 0 -12 -4 -21 -9 -21 -10 0 -7
-38 4 -48 2 -3 -1 -12 -8 -20 -10 -13 -9 -14 2 -7 11 6 13 2 9 -18 -3 -15 0
-28 5 -30 24 -8 -5 -35 -50 -46 -26 -7 -70 -19 -98 -26 -27 -8 -70 -17 -94
-19 -37 -4 -44 -2 -48 14 -3 11 -10 20 -15 20 -5 0 -7 -4 -4 -8 3 -5 -10 -4
-29 2 -20 6 -35 18 -35 26 0 13 -1 13 -10 0 -6 -10 -10 -11 -10 -2 0 6 -9 12
-21 12 -11 0 -18 -4 -15 -9 7 -11 -13 -9 -33 3 -9 6 -18 4 -26 -7 -9 -13 -14
-14 -25 -4 -10 10 -11 9 -5 -2 6 -11 4 -13 -9 -8 -11 5 -15 3 -10 -5 5 -8 2
-9 -10 -5 -11 5 -15 3 -10 -5 5 -8 2 -9 -9 -5 -10 4 -16 2 -14 -5 1 -6 -4 -13
-12 -16 -9 -3 -11 0 -6 8 6 9 3 9 -13 1 -22 -12 -104 0 -152 21 -14 6 -31 10
-38 9 -18 -3 -84 19 -98 34 -14 13 -7 65 9 65 6 0 8 3 4 6 -3 3 -2 16 3 28 5
14 4 28 -2 37 -7 11 -8 9 -3 -6 4 -13 3 -16 -3 -10 -5 6 -12 26 -15 45 -6 35
-6 35 8 10 20 -34 19 -18 -2 24 -9 19 -20 33 -25 30 -4 -3 -5 2 -2 10 3 8 0
23 -6 33 -10 16 -11 15 -6 -7 5 -24 5 -24 -19 5 -13 17 -23 35 -21 40 2 6 -7
18 -20 28 -27 21 -33 12 -6 -10 9 -8 -2 -4 -25 9 -23 12 -39 26 -37 29 2 4 -5
5 -16 2 -12 -3 -20 0 -20 6 0 7 -4 9 -10 6 -5 -3 -10 -1 -10 4 0 7 -23 11 -56
11 -30 0 -53 -4 -50 -9 6 -9 -44 -35 -52 -26 -3 3 0 5 6 5 7 0 12 4 12 9 0 5
-8 7 -19 4 -16 -4 -19 3 -26 52 -9 72 -9 199 0 259 8 48 19 55 56 36 27 -15
150 -29 142 -17 -4 6 5 8 20 5 17 -3 24 -1 20 5 -4 6 0 8 11 4 9 -4 15 -3 12
2 -7 11 22 23 36 14 7 -3 8 -1 4 5 -4 7 3 14 19 18 13 3 22 10 19 15 -3 5 2 9
10 9 9 0 15 3 14 8 -5 13 28 52 37 44 5 -4 5 -1 0 7 -5 9 -3 18 6 25 15 12 18
32 19 111 0 73 -4 105 -13 105 -5 0 -5 5 -2 10 3 6 1 10 -5 10 -6 0 -8 5 -5
10 3 6 1 10 -5 10 -6 0 -8 5 -5 10 4 6 1 9 -7 8 -7 -2 -12 3 -11 9 2 7 -3 12
-9 10 -7 -1 -14 9 -16 22 -3 16 -6 20 -11 12 -6 -9 -11 -7 -22 5 -12 16 -12
17 1 9 13 -8 13 -6 2 7 -12 15 -7 21 35 53 50 37 199 115 221 115 6 0 13 -6
13 -12z m-1254 -398 c3 -3 13 6 23 20 l20 25 0 -34 c0 -22 4 -32 13 -28 6 2
23 8 36 12 l24 7 -21 -30 c-19 -26 -20 -31 -6 -36 9 -3 25 -6 35 -6 30 0 14
-16 -22 -24 -29 -6 -31 -8 -17 -24 26 -30 33 -46 17 -40 -57 21 -59 21 -59
-14 l0 -33 -19 25 -19 24 -21 -24 -20 -25 -1 34 c0 22 -4 32 -12 28 -7 -2 -24
-8 -37 -12 l-24 -7 22 28 23 29 -34 14 -33 14 33 9 c38 10 39 14 10 46 -15 16
-17 23 -8 20 61 -21 60 -22 60 19 l0 37 17 -24 c9 -14 18 -27 20 -30z m3080
26 l23 29 0 -39 c0 -32 3 -37 18 -31 9 4 26 10 37 13 18 4 18 2 -5 -22 -21
-23 -22 -29 -10 -36 8 -5 23 -10 33 -10 10 0 15 -4 12 -10 -3 -5 -15 -10 -25
-10 -28 0 -34 -19 -14 -41 21 -23 13 -35 -14 -20 -30 16 -32 15 -32 -26 l-1
-38 -21 29 -22 29 -23 -29 -23 -29 0 38 c0 41 -2 42 -32 26 -27 -15 -35 -3
-14 20 20 22 14 41 -14 41 -10 0 -22 5 -25 10 -3 6 2 10 12 10 10 0 25 5 33
10 12 7 11 13 -10 36 -23 24 -23 26 -5 22 11 -3 28 -9 38 -13 14 -6 17 -1 17
31 l1 39 21 -29 22 -29 23 29z m-2629 -768 c64 -73 137 -142 198 -188 l95 -72
21 22 c25 27 70 23 124 -10 45 -29 88 -85 80 -106 -5 -13 -13 -8 -36 25 -50
68 -138 106 -153 67 -10 -26 173 -120 308 -159 350 -101 585 -103 880 -6 142
47 372 151 420 191 95 79 134 108 144 108 16 0 14 -15 -4 -30 -33 -27 -5 -118
48 -155 28 -20 34 -19 40 6 8 29 42 21 42 -10 0 -56 -68 -52 -126 9 -20 21
-41 55 -45 76 l-9 37 -33 -28 c-17 -15 -32 -31 -32 -36 0 -5 25 -46 56 -90 38
-54 53 -84 46 -91 -6 -6 -29 18 -68 76 -43 63 -64 85 -78 84 -43 -6 -40 -31
13 -127 29 -51 50 -95 47 -98 -3 -3 -23 2 -46 11 -22 9 -60 16 -84 16 -77 0
-79 34 -8 112 44 48 16 51 -66 7 -42 -23 -78 -43 -80 -44 -1 -1 14 -46 33 -99
39 -109 41 -116 21 -116 -7 0 -19 20 -26 45 -13 45 -47 82 -62 67 -4 -4 -14
-25 -21 -47 -16 -47 -40 -65 -64 -49 -28 18 -27 33 4 31 24 -2 28 2 31 25 3
21 -3 30 -27 42 -16 9 -39 16 -50 16 -10 0 -21 5 -23 10 -7 21 -68 -2 -83 -31
-18 -33 -18 -52 -5 -99 15 -51 28 -69 39 -52 11 18 45 11 49 -10 2 -9 -7 -22
-19 -28 -52 -28 -103 42 -103 143 -1 53 -2 58 -21 53 -11 -3 -28 -6 -39 -6
-17 0 -18 -6 -12 -82 4 -46 9 -98 13 -115 8 -49 -11 -40 -45 20 -16 29 -36 58
-45 65 -12 10 -16 8 -21 -13 -5 -18 -13 -25 -29 -25 -44 0 -61 38 -30 72 24
27 58 22 99 -14 l37 -33 -6 40 c-4 22 -7 48 -7 58 0 15 -14 17 -146 17 -135 0
-145 -1 -133 -17 8 -9 29 -22 47 -30 37 -15 38 -22 16 -65 -12 -23 -15 -47
-11 -85 6 -60 -6 -78 -22 -31 -14 40 -13 74 3 120 13 36 13 37 -15 47 -16 5
-37 24 -47 41 l-19 30 -26 -21 c-36 -28 -38 -79 -3 -79 13 0 29 7 36 15 16 20
36 5 43 -33 18 -92 -93 -144 -156 -74 -37 41 -65 182 -37 182 6 0 10 -11 10
-23 0 -41 28 -118 51 -143 12 -13 33 -24 46 -24 28 0 63 33 63 59 0 17 -5 18
-42 14 -33 -5 -44 -2 -55 12 -17 24 -17 53 1 88 8 15 13 27 11 27 -55 0 -317
73 -411 115 -59 26 -65 24 -33 -11 24 -26 28 -72 8 -85 -8 -5 -26 -12 -40 -15
l-26 -6 24 -44 c22 -40 24 -64 4 -64 -4 0 -13 16 -20 36 -7 19 -33 56 -57 81
-50 53 -49 71 4 43 61 -33 113 -20 91 22 -8 15 -17 18 -38 13 -19 -4 -32 -1
-40 9 -16 19 -6 36 20 36 33 0 21 24 -26 49 -25 13 -47 22 -49 20 -2 -2 -27
-42 -56 -89 -63 -102 -58 -96 -70 -84 -6 6 11 42 45 97 30 48 55 90 55 95 0 4
-11 15 -25 24 l-24 18 -67 -85 c-67 -85 -92 -104 -80 -62 17 60 28 128 21 135
-4 4 -10 1 -12 -5 -3 -7 -17 -13 -33 -13 -39 0 -50 34 -22 63 18 18 24 19 51
7 32 -13 42 -31 43 -80 1 -29 2 -30 21 -13 10 10 27 30 38 44 l18 26 -77 61
c-42 33 -87 74 -100 91 -12 17 -27 31 -32 31 -15 0 -12 -43 4 -66 18 -25 11
-36 -32 -53 -31 -13 -85 -66 -94 -92 -2 -7 -10 -9 -16 -5 -26 16 46 105 98
121 16 5 19 11 13 28 -4 12 -8 42 -8 67 0 41 -2 45 -26 48 -14 2 -36 -5 -49
-16 -31 -25 -21 -52 19 -52 38 0 43 -9 25 -47 -17 -34 -50 -53 -94 -53 -35 0
-80 50 -80 89 0 49 77 177 95 159 3 -3 -9 -29 -26 -57 -43 -68 -45 -125 -8
-153 24 -18 30 -19 55 -7 33 17 43 39 16 39 -30 0 -54 33 -46 64 7 29 39 56
66 56 25 0 22 12 -8 41 -33 31 -47 56 -38 71 5 8 10 7 18 -4 6 -8 57 -66 114
-130z m2181 95 c6 -21 11 -48 11 -60 0 -26 3 -27 30 -11 23 15 38 4 21 -16 -9
-11 3 -27 69 -86 44 -40 80 -76 80 -80 0 -4 -24 -8 -53 -8 -30 0 -71 -7 -92
-16 -52 -22 -67 -9 -50 42 16 45 4 75 -27 70 -25 -4 -37 -28 -14 -28 22 0 31
-27 16 -45 -16 -19 -25 -19 -44 1 -24 23 -19 60 10 83 55 43 101 11 91 -62
l-6 -43 49 15 c27 9 50 19 50 22 0 12 -130 120 -139 115 -10 -6 -15 14 -26 97
-8 57 9 64 24 10z m-1620 -595 c2 -55 12 -80 44 -115 41 -46 111 -13 105 49
-4 37 -23 48 -31 18 -8 -31 -55 -27 -63 5 -14 55 56 76 101 30 34 -33 33 -76
-4 -117 -22 -25 -37 -32 -64 -32 -63 0 -103 54 -114 154 -5 49 -3 60 9 60 10
0 15 -14 17 -52z"/>
<path d="M2920 3337 c-29 -23 -79 -93 -86 -121 -5 -21 -1 -33 17 -52 12 -13
30 -24 39 -24 24 0 61 31 92 77 41 60 43 79 14 108 -27 27 -52 31 -76 12z"/>
<path d="M1684 1831 c5 -49 4 -77 -4 -86 -8 -10 -8 -15 1 -21 8 -5 9 -3 4 6
-5 9 -4 11 3 6 7 -4 12 -23 12 -42 0 -19 -4 -33 -8 -30 -4 2 -8 -4 -9 -14 -1
-11 2 -22 8 -25 5 -3 6 2 4 12 -3 10 0 8 7 -5 9 -19 9 -28 -1 -44 -7 -11 -8
-17 -3 -14 11 6 20 -29 14 -56 -2 -10 -8 -18 -13 -18 -6 0 -31 -9 -56 -21 -25
-11 -51 -18 -59 -15 -10 4 -12 2 -8 -6 5 -8 2 -9 -10 -5 -11 5 -15 3 -10 -5 5
-8 2 -9 -10 -5 -9 4 -14 3 -11 -2 3 -5 -4 -13 -16 -16 -52 -17 -173 -78 -161
-82 6 -3 10 -9 7 -14 -4 -5 2 -6 11 -2 12 4 15 3 10 -5 -4 -8 -2 -10 8 -6 20
8 78 -24 70 -39 -5 -9 -4 -9 6 0 10 9 20 8 44 -4 17 -9 37 -23 44 -32 8 -9 11
-11 8 -4 -4 8 7 6 34 -4 22 -9 37 -20 33 -26 -3 -6 -1 -7 5 -3 6 4 25 0 42 -9
27 -14 30 -18 18 -33 -7 -9 -8 -13 -2 -9 7 4 12 -3 12 -18 0 -14 -5 -28 -11
-32 -6 -4 -7 -1 -2 8 5 8 4 10 0 6 -12 -10 -15 -38 -4 -31 12 7 12 0 -6 -141
-8 -65 -15 -127 -15 -136 0 -21 22 -30 41 -17 11 8 10 8 -5 4 -16 -6 -17 -4
-6 9 7 9 19 14 25 11 7 -2 18 0 26 6 11 7 9 8 -6 3 -27 -9 -16 1 84 75 46 34
95 63 108 65 13 1 27 6 31 10 4 5 -2 5 -12 1 -19 -7 -19 -6 -1 14 19 21 51 28
39 8 -4 -7 -3 -8 4 -4 15 9 63 -23 55 -38 -3 -6 -3 -8 2 -4 11 11 47 -11 39
-24 -4 -6 -3 -8 3 -5 14 9 95 -52 86 -65 -3 -7 -1 -8 6 -4 15 10 43 -13 34
-27 -3 -6 -1 -7 5 -3 7 4 12 2 12 -5 0 -7 3 -9 6 -6 4 4 20 -3 36 -15 l30 -21
-3 46 c-4 39 -2 44 11 34 9 -7 8 -4 -2 9 -21 24 -23 55 -5 73 8 10 8 12 0 7
-6 -3 -14 -2 -18 4 -3 5 0 10 7 10 9 0 10 2 1 8 -6 4 -14 45 -17 92 -3 49 -2
79 3 71 6 -9 9 -5 9 14 0 19 -3 23 -9 14 -7 -11 -9 -11 -9 2 0 20 261 135 280
124 9 -5 11 -4 6 3 -4 7 8 17 30 27 30 12 39 13 46 3 6 -10 8 -10 8 0 0 7 -20
22 -45 34 -24 12 -41 26 -38 31 3 6 1 7 -5 4 -14 -9 -43 3 -36 14 3 5 -3 6
-12 2 -11 -4 -15 -3 -10 5 3 6 1 14 -5 18 -8 4 -9 3 -5 -4 12 -20 -23 -13 -44
8 -11 11 -20 17 -20 13 0 -5 -5 -1 -10 7 -6 10 -10 11 -10 3 0 -19 -50 7 -50
26 0 13 -2 13 -9 3 -7 -12 -14 -11 -41 3 -30 16 -32 19 -26 58 3 23 8 72 12
110 3 37 11 67 16 67 5 0 6 -6 2 -12 -4 -7 -3 -9 1 -5 12 11 15 38 4 31 -7 -4
-9 25 -7 77 2 66 0 83 -12 86 -12 4 -13 3 -1 -5 11 -8 9 -11 -10 -18 -13 -4
-31 -7 -39 -6 -12 2 -12 1 -1 -6 16 -12 -1 -25 -22 -16 -8 3 -18 1 -22 -5 -4
-7 1 -9 12 -5 16 5 16 4 -1 -10 -10 -8 -23 -13 -29 -9 -6 3 -7 1 -4 -4 9 -14
-71 -68 -97 -66 -12 1 -15 0 -8 -3 8 -4 -4 -18 -33 -40 -43 -34 -46 -34 -70
-18 -14 9 -22 21 -18 28 3 6 3 8 -2 4 -10 -9 -47 10 -41 21 3 4 -1 8 -8 8 -7
0 -55 31 -107 70 -134 99 -123 98 -115 14z m450 -205 c69 -34 135 -107 160
-175 41 -114 5 -266 -81 -342 -66 -58 -131 -83 -213 -83 -66 -1 -85 4 -143 32
-122 60 -184 169 -175 306 9 136 90 239 223 283 62 20 164 11 229 -21z"/>
<path d="M1956 1522 c-16 -37 -32 -70 -36 -74 -3 -4 -40 -13 -83 -19 -42 -6
-77 -15 -77 -19 0 -4 26 -31 59 -61 l58 -54 -8 -55 c-4 -30 -8 -67 -8 -83 l-1
-28 73 41 73 40 73 -35 c41 -20 75 -34 77 -33 1 2 -4 32 -11 68 -8 36 -14 72
-15 81 0 8 25 43 55 77 l55 61 -57 6 c-114 12 -111 11 -148 86 -20 38 -39 69
-43 69 -4 0 -20 -31 -36 -68z"/>
</g>
</svg>
