G04 EAGLE Gerber RS-274X export*
G75*
%MOMM*%
%FSLAX34Y34*%
%LPD*%
%INBottom Copper*%
%IPPOS*%
%AMOC8*
5,1,8,0,0,1.08239X$1,22.5*%
G01*
%ADD10C,1.422400*%
%ADD11C,1.879600*%
%ADD12C,1.676400*%
%ADD13C,1.308000*%
%ADD14R,1.308000X1.308000*%
%ADD15C,1.778000*%
%ADD16C,0.152400*%


D10*
X1162812Y50800D02*
X1148588Y50800D01*
X1148588Y76200D02*
X1162812Y76200D01*
X1162812Y101600D02*
X1148588Y101600D01*
X1148588Y127000D02*
X1162812Y127000D01*
D11*
X215900Y355600D03*
X215900Y431800D03*
X81788Y416306D03*
X146812Y416306D03*
X81788Y371094D03*
X146812Y371094D03*
D12*
X469900Y325882D02*
X469900Y309118D01*
X444500Y309118D02*
X444500Y325882D01*
X419100Y325882D02*
X419100Y309118D01*
X393700Y309118D02*
X393700Y325882D01*
X368300Y325882D02*
X368300Y309118D01*
X342900Y309118D02*
X342900Y325882D01*
X317500Y325882D02*
X317500Y309118D01*
X292100Y309118D02*
X292100Y325882D01*
X266700Y325882D02*
X266700Y309118D01*
X241300Y309118D02*
X241300Y325882D01*
X215900Y325882D02*
X215900Y309118D01*
X190500Y309118D02*
X190500Y325882D01*
X165100Y325882D02*
X165100Y309118D01*
X139700Y309118D02*
X139700Y325882D01*
X114300Y325882D02*
X114300Y309118D01*
X114300Y46482D02*
X114300Y29718D01*
X139700Y29718D02*
X139700Y46482D01*
X165100Y46482D02*
X165100Y29718D01*
X190500Y29718D02*
X190500Y46482D01*
X215900Y46482D02*
X215900Y29718D01*
X241300Y29718D02*
X241300Y46482D01*
X266700Y46482D02*
X266700Y29718D01*
X292100Y29718D02*
X292100Y46482D01*
X317500Y46482D02*
X317500Y29718D01*
X342900Y29718D02*
X342900Y46482D01*
X368300Y46482D02*
X368300Y29718D01*
X393700Y29718D02*
X393700Y46482D01*
X419100Y46482D02*
X419100Y29718D01*
X444500Y29718D02*
X444500Y46482D01*
X469900Y46482D02*
X469900Y29718D01*
D13*
X1146400Y202100D03*
X1146400Y227100D03*
X1146400Y252100D03*
X1146400Y277100D03*
X1146400Y302100D03*
X936400Y227100D03*
X936400Y252100D03*
X936400Y277100D03*
X936400Y302100D03*
X936400Y327100D03*
D14*
X936400Y352100D03*
X1146400Y327100D03*
D11*
X729300Y392100D03*
X754700Y392100D03*
X780100Y392100D03*
X805500Y392100D03*
D15*
X1016000Y46990D02*
X1016000Y29210D01*
X1041400Y29210D02*
X1041400Y46990D01*
X990600Y46990D02*
X990600Y29210D01*
X965200Y29210D02*
X965200Y46990D01*
X939800Y46990D02*
X939800Y29210D01*
X1066800Y29210D02*
X1066800Y46990D01*
X1092200Y46990D02*
X1092200Y29210D01*
X1117600Y29210D02*
X1117600Y46990D01*
D16*
X1155192Y100584D02*
X1002792Y100584D01*
X940308Y38100D01*
X1155192Y100584D02*
X1155700Y101600D01*
X940308Y38100D02*
X939800Y38100D01*
X114300Y317500D02*
X114300Y384048D01*
X82296Y416052D01*
X81788Y416306D01*
X794004Y327660D02*
X935736Y327660D01*
X794004Y327660D02*
X729996Y391668D01*
X935736Y327660D02*
X936400Y327100D01*
X729996Y391668D02*
X729300Y392100D01*
X1002792Y260604D02*
X1002792Y100584D01*
X1002792Y260604D02*
X937260Y326136D01*
X936400Y327100D01*
X935736Y251460D02*
X403860Y251460D01*
X190500Y38100D01*
X935736Y251460D02*
X936400Y252100D01*
X935736Y275844D02*
X403860Y275844D01*
X166116Y38100D01*
X935736Y275844D02*
X936400Y277100D01*
X166116Y38100D02*
X165100Y38100D01*
X419100Y38100D02*
X440436Y16764D01*
X995172Y16764D01*
X1016508Y38100D01*
X1016000Y38100D01*
X140208Y38100D02*
X140208Y242316D01*
X204216Y306324D01*
X204216Y420624D01*
X214884Y431292D01*
X140208Y38100D02*
X139700Y38100D01*
X214884Y431292D02*
X215900Y431800D01*
M02*
