G04 EAGLE Gerber RS-274X export*
G75*
%MOMM*%
%FSLAX34Y34*%
%LPD*%
%INSoldermask Top*%
%IPPOS*%
%AMOC8*
5,1,8,0,0,1.08239X$1,22.5*%
G01*
%ADD10C,1.625600*%
%ADD11C,2.082800*%
%ADD12C,1.879600*%
%ADD13C,1.511200*%
%ADD14R,1.511200X1.511200*%
%ADD15C,3.403200*%
%ADD16C,1.981200*%

G36*
X82035Y411259D02*
X82035Y411259D01*
X82134Y411259D01*
X83091Y411401D01*
X83139Y411417D01*
X83229Y411437D01*
X84131Y411789D01*
X84174Y411815D01*
X84256Y411855D01*
X85057Y412398D01*
X85093Y412434D01*
X85165Y412491D01*
X85825Y413199D01*
X85852Y413241D01*
X85909Y413313D01*
X86395Y414150D01*
X86412Y414198D01*
X86452Y414281D01*
X86739Y415205D01*
X86745Y415255D01*
X86766Y415345D01*
X86833Y416229D01*
X86834Y416232D01*
X86834Y416240D01*
X86837Y416277D01*
X86841Y416306D01*
X86841Y416358D01*
X86836Y416385D01*
X86733Y417352D01*
X86719Y417400D01*
X86702Y417491D01*
X86383Y418421D01*
X86358Y418465D01*
X86322Y418550D01*
X85803Y419386D01*
X85770Y419423D01*
X85715Y419498D01*
X85024Y420197D01*
X84982Y420226D01*
X84913Y420287D01*
X84083Y420815D01*
X84036Y420834D01*
X83955Y420877D01*
X83028Y421208D01*
X82978Y421216D01*
X82890Y421240D01*
X81937Y421353D01*
X81834Y421373D01*
X81829Y421373D01*
X81826Y421375D01*
X81638Y421381D01*
X80680Y421270D01*
X80632Y421256D01*
X80542Y421238D01*
X79633Y420917D01*
X79589Y420892D01*
X79505Y420855D01*
X78690Y420340D01*
X78653Y420306D01*
X78580Y420251D01*
X77900Y419567D01*
X77871Y419526D01*
X77812Y419456D01*
X77301Y418638D01*
X77283Y418591D01*
X77240Y418510D01*
X76925Y417599D01*
X76917Y417549D01*
X76893Y417460D01*
X76789Y416502D01*
X76791Y416472D01*
X76785Y416433D01*
X76785Y416332D01*
X76790Y416305D01*
X76788Y416268D01*
X76887Y415295D01*
X76900Y415246D01*
X76917Y415156D01*
X77229Y414229D01*
X77254Y414185D01*
X77289Y414100D01*
X77800Y413266D01*
X77834Y413228D01*
X77888Y413154D01*
X78572Y412454D01*
X78613Y412425D01*
X78682Y412365D01*
X79504Y411835D01*
X79551Y411815D01*
X79631Y411771D01*
X80551Y411438D01*
X80600Y411429D01*
X80689Y411404D01*
X81660Y411284D01*
X81670Y411284D01*
X81682Y411281D01*
X81985Y411254D01*
X82035Y411259D01*
G37*
G36*
X147110Y411234D02*
X147110Y411234D01*
X147209Y411234D01*
X148166Y411376D01*
X148214Y411392D01*
X148304Y411412D01*
X149206Y411764D01*
X149249Y411790D01*
X149331Y411830D01*
X150132Y412373D01*
X150168Y412409D01*
X150240Y412466D01*
X150900Y413174D01*
X150927Y413216D01*
X150984Y413288D01*
X151470Y414125D01*
X151487Y414173D01*
X151527Y414256D01*
X151814Y415180D01*
X151820Y415230D01*
X151841Y415320D01*
X151908Y416204D01*
X151909Y416207D01*
X151909Y416215D01*
X151912Y416252D01*
X151916Y416281D01*
X151916Y416333D01*
X151911Y416360D01*
X151808Y417327D01*
X151794Y417375D01*
X151777Y417466D01*
X151458Y418396D01*
X151433Y418440D01*
X151397Y418525D01*
X150878Y419361D01*
X150845Y419398D01*
X150790Y419473D01*
X150099Y420172D01*
X150057Y420201D01*
X149988Y420262D01*
X149158Y420790D01*
X149111Y420809D01*
X149030Y420852D01*
X148103Y421183D01*
X148053Y421191D01*
X147965Y421215D01*
X147012Y421328D01*
X146909Y421348D01*
X146904Y421348D01*
X146901Y421350D01*
X146713Y421356D01*
X145755Y421245D01*
X145707Y421231D01*
X145617Y421213D01*
X144708Y420892D01*
X144664Y420867D01*
X144580Y420830D01*
X143765Y420315D01*
X143728Y420281D01*
X143655Y420226D01*
X142975Y419542D01*
X142946Y419501D01*
X142887Y419431D01*
X142376Y418613D01*
X142358Y418566D01*
X142315Y418485D01*
X142000Y417574D01*
X141992Y417524D01*
X141968Y417435D01*
X141864Y416477D01*
X141866Y416447D01*
X141860Y416408D01*
X141860Y416307D01*
X141865Y416280D01*
X141863Y416243D01*
X141962Y415270D01*
X141975Y415221D01*
X141992Y415131D01*
X142304Y414204D01*
X142329Y414160D01*
X142364Y414075D01*
X142875Y413241D01*
X142909Y413203D01*
X142963Y413129D01*
X143647Y412429D01*
X143688Y412400D01*
X143757Y412340D01*
X144579Y411810D01*
X144626Y411790D01*
X144706Y411746D01*
X145626Y411413D01*
X145675Y411404D01*
X145764Y411379D01*
X146735Y411259D01*
X146745Y411259D01*
X146757Y411256D01*
X147060Y411229D01*
X147110Y411234D01*
G37*
G36*
X147110Y365996D02*
X147110Y365996D01*
X147209Y365996D01*
X148166Y366138D01*
X148214Y366154D01*
X148304Y366174D01*
X149206Y366526D01*
X149249Y366552D01*
X149331Y366592D01*
X150132Y367135D01*
X150168Y367171D01*
X150240Y367228D01*
X150900Y367936D01*
X150927Y367978D01*
X150984Y368050D01*
X151470Y368887D01*
X151487Y368935D01*
X151527Y369018D01*
X151814Y369942D01*
X151820Y369992D01*
X151841Y370082D01*
X151908Y370966D01*
X151909Y370969D01*
X151909Y370977D01*
X151912Y371014D01*
X151916Y371043D01*
X151916Y371095D01*
X151911Y371122D01*
X151808Y372089D01*
X151794Y372137D01*
X151777Y372228D01*
X151458Y373158D01*
X151433Y373202D01*
X151397Y373287D01*
X150878Y374123D01*
X150845Y374160D01*
X150790Y374235D01*
X150099Y374934D01*
X150057Y374963D01*
X149988Y375024D01*
X149158Y375552D01*
X149111Y375571D01*
X149030Y375614D01*
X148103Y375945D01*
X148053Y375953D01*
X147965Y375977D01*
X147012Y376090D01*
X146909Y376110D01*
X146904Y376110D01*
X146901Y376112D01*
X146713Y376118D01*
X145755Y376007D01*
X145707Y375993D01*
X145617Y375975D01*
X144708Y375654D01*
X144664Y375629D01*
X144580Y375592D01*
X143765Y375077D01*
X143728Y375043D01*
X143655Y374988D01*
X142975Y374304D01*
X142946Y374263D01*
X142887Y374193D01*
X142376Y373375D01*
X142358Y373328D01*
X142315Y373247D01*
X142000Y372336D01*
X141992Y372286D01*
X141968Y372197D01*
X141864Y371239D01*
X141866Y371209D01*
X141860Y371170D01*
X141860Y371069D01*
X141865Y371042D01*
X141863Y371005D01*
X141962Y370032D01*
X141975Y369983D01*
X141992Y369893D01*
X142304Y368966D01*
X142329Y368922D01*
X142364Y368837D01*
X142875Y368003D01*
X142909Y367965D01*
X142963Y367891D01*
X143647Y367191D01*
X143688Y367162D01*
X143757Y367102D01*
X144579Y366572D01*
X144626Y366552D01*
X144706Y366508D01*
X145626Y366175D01*
X145675Y366166D01*
X145764Y366141D01*
X146735Y366021D01*
X146745Y366021D01*
X146757Y366018D01*
X147060Y365991D01*
X147110Y365996D01*
G37*
G36*
X82086Y365971D02*
X82086Y365971D01*
X82185Y365971D01*
X83142Y366113D01*
X83190Y366129D01*
X83280Y366149D01*
X84182Y366501D01*
X84225Y366527D01*
X84307Y366567D01*
X85108Y367110D01*
X85144Y367146D01*
X85216Y367203D01*
X85876Y367911D01*
X85903Y367953D01*
X85960Y368025D01*
X86446Y368862D01*
X86463Y368910D01*
X86503Y368993D01*
X86790Y369917D01*
X86796Y369967D01*
X86817Y370057D01*
X86884Y370941D01*
X86885Y370944D01*
X86885Y370952D01*
X86888Y370989D01*
X86892Y371018D01*
X86892Y371070D01*
X86887Y371097D01*
X86784Y372064D01*
X86770Y372112D01*
X86753Y372203D01*
X86434Y373133D01*
X86409Y373177D01*
X86373Y373262D01*
X85854Y374098D01*
X85821Y374135D01*
X85766Y374210D01*
X85075Y374909D01*
X85033Y374938D01*
X84964Y374999D01*
X84134Y375527D01*
X84087Y375546D01*
X84006Y375589D01*
X83079Y375920D01*
X83029Y375928D01*
X82941Y375952D01*
X81988Y376065D01*
X81885Y376085D01*
X81880Y376085D01*
X81877Y376087D01*
X81689Y376093D01*
X80731Y375982D01*
X80683Y375968D01*
X80593Y375950D01*
X79684Y375629D01*
X79640Y375604D01*
X79556Y375567D01*
X78741Y375052D01*
X78704Y375018D01*
X78631Y374963D01*
X77951Y374279D01*
X77922Y374238D01*
X77863Y374168D01*
X77352Y373350D01*
X77334Y373303D01*
X77291Y373222D01*
X76976Y372311D01*
X76968Y372261D01*
X76944Y372172D01*
X76840Y371214D01*
X76842Y371184D01*
X76836Y371145D01*
X76836Y371044D01*
X76841Y371017D01*
X76839Y370980D01*
X76938Y370007D01*
X76951Y369958D01*
X76968Y369868D01*
X77280Y368941D01*
X77305Y368897D01*
X77340Y368812D01*
X77851Y367978D01*
X77885Y367940D01*
X77939Y367866D01*
X78623Y367166D01*
X78664Y367137D01*
X78733Y367077D01*
X79555Y366547D01*
X79602Y366527D01*
X79682Y366483D01*
X80602Y366150D01*
X80651Y366141D01*
X80740Y366116D01*
X81711Y365996D01*
X81721Y365996D01*
X81733Y365993D01*
X82036Y365966D01*
X82086Y365971D01*
G37*
D10*
X1162812Y50800D02*
X1148588Y50800D01*
X1148588Y76200D02*
X1162812Y76200D01*
X1162812Y101600D02*
X1148588Y101600D01*
X1148588Y127000D02*
X1162812Y127000D01*
D11*
X215900Y355600D03*
X215900Y431800D03*
D12*
X469900Y325882D02*
X469900Y309118D01*
X444500Y309118D02*
X444500Y325882D01*
X419100Y325882D02*
X419100Y309118D01*
X393700Y309118D02*
X393700Y325882D01*
X368300Y325882D02*
X368300Y309118D01*
X342900Y309118D02*
X342900Y325882D01*
X317500Y325882D02*
X317500Y309118D01*
X292100Y309118D02*
X292100Y325882D01*
X266700Y325882D02*
X266700Y309118D01*
X241300Y309118D02*
X241300Y325882D01*
X215900Y325882D02*
X215900Y309118D01*
X190500Y309118D02*
X190500Y325882D01*
X165100Y325882D02*
X165100Y309118D01*
X139700Y309118D02*
X139700Y325882D01*
X114300Y325882D02*
X114300Y309118D01*
X114300Y46482D02*
X114300Y29718D01*
X139700Y29718D02*
X139700Y46482D01*
X165100Y46482D02*
X165100Y29718D01*
X190500Y29718D02*
X190500Y46482D01*
X215900Y46482D02*
X215900Y29718D01*
X241300Y29718D02*
X241300Y46482D01*
X266700Y46482D02*
X266700Y29718D01*
X292100Y29718D02*
X292100Y46482D01*
X317500Y46482D02*
X317500Y29718D01*
X342900Y29718D02*
X342900Y46482D01*
X368300Y46482D02*
X368300Y29718D01*
X393700Y29718D02*
X393700Y46482D01*
X419100Y46482D02*
X419100Y29718D01*
X444500Y29718D02*
X444500Y46482D01*
X469900Y46482D02*
X469900Y29718D01*
D13*
X1146400Y202100D03*
X1146400Y227100D03*
X1146400Y252100D03*
X1146400Y277100D03*
X1146400Y302100D03*
X936400Y227100D03*
X936400Y252100D03*
X936400Y277100D03*
X936400Y302100D03*
X936400Y327100D03*
D14*
X936400Y352100D03*
X1146400Y327100D03*
D15*
X668000Y381800D03*
X866000Y381800D03*
X668000Y75800D03*
X866000Y76800D03*
D11*
X729300Y392100D03*
X754700Y392100D03*
X780100Y392100D03*
X805500Y392100D03*
D16*
X1016000Y46990D02*
X1016000Y29210D01*
X1041400Y29210D02*
X1041400Y46990D01*
X990600Y46990D02*
X990600Y29210D01*
X965200Y29210D02*
X965200Y46990D01*
X939800Y46990D02*
X939800Y29210D01*
X1066800Y29210D02*
X1066800Y46990D01*
X1092200Y46990D02*
X1092200Y29210D01*
X1117600Y29210D02*
X1117600Y46990D01*
M02*
